<svg width="75" height="73" fill="none" xmlns="http://www.w3.org/2000/svg"><g filter="url(#Group 13__a)"><path d="M64.167 32.5c0 14.35-11.856 26-26.5 26-14.645 0-26.5-11.65-26.5-26s11.855-26 26.5-26c14.644 0 26.5 11.65 26.5 26Z" fill="#A5D5FB" stroke="#000"/><path d="M37.667 32A6.331 6.331 0 0 0 44 25.667c0-3.5-2.834-6.334-6.333-6.334a6.332 6.332 0 0 0-6.334 6.334A6.331 6.331 0 0 0 37.667 32Zm0 3.167C33.439 35.167 25 37.288 25 41.5v3.167h25.333V41.5c0-4.212-8.439-6.333-12.666-6.333Z" fill="#000"/></g><defs><filter id="Group 13__a" x=".667" y="0" width="74" height="73" filterUnits="userSpaceOnUse" color-interpolation-filters="sRGB"><feFlood flood-opacity="0" result="BackgroundImageFix"/><feColorMatrix in="SourceAlpha" values="0 0 0 0 0 0 0 0 0 0 0 0 0 0 0 0 0 0 127 0" result="hardAlpha"/><feOffset dy="4"/><feGaussianBlur stdDeviation="5"/><feColorMatrix values="0 0 0 0 0 0 0 0 0 0 0 0 0 0 0 0 0 0 0.25 0"/><feBlend in2="BackgroundImageFix" result="effect1_dropShadow_34_20"/><feBlend in="SourceGraphic" in2="effect1_dropShadow_34_20" result="shape"/></filter></defs></svg>