<svg width="144" height="69" fill="none" xmlns="http://www.w3.org/2000/svg"><g filter="url(#beach__a)"><path opacity=".79" d="M117.903 12.3H26.097C19.968 12.3 15 15.42 15 19.267v24.066c0 3.848 4.968 6.967 11.097 6.967h91.806c6.129 0 11.097-3.119 11.097-6.967V19.267c0-3.848-4.968-6.967-11.097-6.967Z" fill="#fff"/></g><path d="M61.09 37.3V25.847h4.297c.875 0 1.576.117 2.102.351.531.23.945.586 1.242 1.07.302.48.453.983.453 1.509 0 .49-.133.95-.398 1.382-.266.433-.667.782-1.203 1.047.692.203 1.224.55 1.593 1.04.375.489.563 1.067.563 1.734 0 .536-.115 1.036-.344 1.5-.224.458-.503.812-.836 1.062-.333.25-.752.44-1.258.57-.5.125-1.114.188-1.843.188H61.09Zm1.516-6.64h2.477c.671 0 1.153-.045 1.445-.133.385-.115.674-.305.867-.57.198-.266.297-.6.297-1 0-.38-.091-.714-.273-1a1.362 1.362 0 0 0-.782-.595c-.338-.109-.919-.163-1.742-.163h-2.289v3.46Zm0 5.289h2.852c.49 0 .833-.019 1.03-.055a2.48 2.48 0 0 0 .876-.313 1.67 1.67 0 0 0 .578-.633c.151-.28.227-.604.227-.968 0-.427-.11-.797-.329-1.11a1.704 1.704 0 0 0-.914-.664c-.385-.13-.942-.195-1.672-.195h-2.648v3.938Zm14.719-1.32 1.453.179c-.23.849-.654 1.508-1.274 1.976-.62.47-1.411.703-2.375.703-1.213 0-2.177-.372-2.89-1.117-.709-.75-1.063-1.8-1.063-3.148 0-1.396.36-2.48 1.078-3.25.72-.77 1.651-1.156 2.797-1.156 1.11 0 2.016.377 2.72 1.133.702.755 1.054 1.817 1.054 3.187 0 .083-.003.208-.008.375h-6.188c.052.911.31 1.61.774 2.094.463.484 1.041.726 1.734.726.516 0 .956-.135 1.32-.406.365-.27.654-.703.868-1.297Zm-4.617-2.274h4.632c-.062-.698-.24-1.222-.53-1.57-.449-.542-1.03-.813-1.743-.813-.646 0-1.19.216-1.633.648-.437.433-.68 1.01-.726 1.735Zm13.257 3.922c-.52.442-1.023.755-1.507.937-.48.182-.995.273-1.547.273-.912 0-1.612-.22-2.102-.663-.49-.448-.734-1.019-.734-1.712 0-.406.09-.776.273-1.109.188-.338.43-.61.727-.812a3.47 3.47 0 0 1 1.015-.461c.276-.073.693-.143 1.25-.211 1.136-.136 1.972-.297 2.508-.485.005-.192.008-.315.008-.367 0-.573-.133-.976-.398-1.21-.36-.318-.894-.477-1.602-.477-.661 0-1.151.117-1.469.351-.312.23-.544.638-.695 1.227l-1.375-.188c.125-.588.33-1.062.617-1.422.287-.364.7-.643 1.242-.835.542-.198 1.17-.297 1.883-.297.708 0 1.284.083 1.727.25.442.166.768.377.976.633.209.25.354.567.438.953.047.24.07.671.07 1.296v1.876c0 1.307.029 2.135.086 2.484.063.344.182.674.36.992h-1.47a2.98 2.98 0 0 1-.28-1.023Zm-.117-3.141c-.51.208-1.276.385-2.297.531-.578.084-.987.177-1.226.282a1.215 1.215 0 0 0-.75 1.125c0 .375.14.687.422.937.286.25.703.375 1.25.375.541 0 1.023-.117 1.445-.352a2.21 2.21 0 0 0 .93-.976c.15-.318.226-.787.226-1.406v-.516Zm9.024 1.125 1.382.18c-.15.953-.539 1.7-1.164 2.242-.62.536-1.382.804-2.289.804-1.135 0-2.05-.37-2.742-1.109-.687-.745-1.031-1.81-1.031-3.195 0-.896.148-1.68.445-2.352.297-.672.748-1.174 1.352-1.508a4.019 4.019 0 0 1 1.984-.507c.901 0 1.638.229 2.211.687.573.453.94 1.1 1.102 1.938l-1.368.21c-.13-.557-.362-.976-.695-1.257-.328-.281-.726-.422-1.195-.422-.709 0-1.284.255-1.727.765-.442.506-.664 1.308-.664 2.407 0 1.114.214 1.924.64 2.43.428.505.985.757 1.673.757.552 0 1.013-.169 1.382-.508.37-.338.605-.859.704-1.562Zm2.586 3.039V25.847h1.406v4.11c.656-.761 1.484-1.141 2.484-1.141.615 0 1.149.122 1.602.367.453.24.776.573.968 1 .198.427.297 1.047.297 1.86V37.3h-1.406v-5.258c0-.703-.154-1.213-.461-1.531-.302-.323-.732-.484-1.289-.484-.417 0-.81.109-1.18.328a1.816 1.816 0 0 0-.78.875c-.157.37-.235.88-.235 1.531V37.3h-1.406Zm-60.331-4.44 1.43-1.43 6.44 6.443L43.57 39.3l-6.443-6.44Zm4.293-5.73 2.86-2.86c-3.95-3.95-10.35-3.96-14.3-.02 3.93-1.3 8.31-.25 11.44 2.88Zm-11.47-2.85c-3.94 3.95-3.93 10.35.02 14.3l2.86-2.86c-3.13-3.13-4.18-7.51-2.88-11.44Zm.02-.02-.01.01c-.38 3.01 1.17 6.88 4.3 10.02l5.73-5.73c-3.13-3.13-7.01-4.68-10.02-4.3Z" fill="#000"/><defs><filter id="beach__a" x="0" y=".3" width="144" height="68" filterUnits="userSpaceOnUse" color-interpolation-filters="sRGB"><feFlood flood-opacity="0" result="BackgroundImageFix"/><feColorMatrix in="SourceAlpha" values="0 0 0 0 0 0 0 0 0 0 0 0 0 0 0 0 0 0 127 0" result="hardAlpha"/><feOffset dy="3"/><feGaussianBlur stdDeviation="7.5"/><feColorMatrix values="0 0 0 0 0.117647 0 0 0 0 0.796078 0 0 0 0 0.882353 0 0 0 1 0"/><feBlend in2="BackgroundImageFix" result="effect1_dropShadow_808_12"/><feBlend in="SourceGraphic" in2="effect1_dropShadow_808_12" result="shape"/></filter></defs></svg>