<svg width="375" height="812" fill="none" xmlns="http://www.w3.org/2000/svg">
  <path d="M205.041-13.143c0 19.154-5.82 38.12-17.129 55.817-11.308 17.696-27.883 33.775-48.778 47.32-20.895 13.543-45.701 24.287-73.002 31.617-27.3 7.33-56.561 11.103-86.112 11.103V-13.143h225.021z" fill="#1E6AE1"/>
  <path d="M-76.26 301.872c-14.283-51.293-6.955-105.983 20.371-152.039 27.326-46.057 72.411-79.707 125.338-93.548l16.496 59.243C49.232 125.13 17.957 148.472-.998 180.42c-18.955 31.948-24.038 69.885-14.131 105.465l-61.131 15.987zM124 866c0-17.334 7.32-34.499 21.542-50.514 14.222-16.015 35.068-30.567 61.347-42.824 26.279-12.257 57.476-21.98 91.812-28.614C333.036 737.414 369.836 734 407 734v132H124z" fill="#1E6AE1"/>
  <path d="M443.958 584.021c16.17 46.407 7.873 95.889-23.065 137.559-30.937 41.67-81.982 72.115-141.904 84.638l-18.677-53.601c41.567-8.687 76.975-29.806 98.436-58.711 21.46-28.906 27.215-63.23 15.998-95.421l69.212-14.464z" fill="#1E6AE1"/>
</svg>
