<svg width="144" height="69" fill="none" xmlns="http://www.w3.org/2000/svg"><g filter="url(#beach__a)"><path opacity=".79" d="M117.903 12.3H26.097C19.968 12.3 15 15.42 15 19.267v24.066c0 3.848 4.968 6.967 11.097 6.967h91.806c6.129 0 11.097-3.119 11.097-6.967V19.267c0-3.848-4.968-6.967-11.097-6.967Z" fill="#fff"/></g><path d="M50.864 37.3V25.847h2.281l2.711 8.11c.25.755.432 1.32.547 1.695.13-.417.333-1.029.61-1.836l2.741-7.97h2.04V37.3h-1.461v-9.586L57.004 37.3h-1.367l-3.312-9.75v9.75h-1.461Zm12.672-4.148c0-1.537.427-2.675 1.28-3.415.715-.614 1.584-.921 2.61-.921 1.14 0 2.073.375 2.797 1.125.724.745 1.086 1.776 1.086 3.093 0 1.068-.161 1.91-.484 2.524a3.376 3.376 0 0 1-1.399 1.422 4.049 4.049 0 0 1-2 .508c-1.161 0-2.101-.373-2.82-1.118-.714-.744-1.07-1.817-1.07-3.218Zm1.445 0c0 1.062.232 1.859.695 2.39.464.526 1.047.79 1.75.79.698 0 1.279-.266 1.742-.798.464-.53.696-1.34.696-2.43 0-1.025-.235-1.801-.703-2.327-.464-.532-1.042-.797-1.735-.797-.703 0-1.286.263-1.75.789-.463.526-.695 1.32-.695 2.383ZM78.403 37.3v-1.219c-.646.938-1.524 1.406-2.633 1.406-.49 0-.948-.093-1.375-.28-.422-.188-.737-.423-.945-.704a2.72 2.72 0 0 1-.43-1.047c-.057-.276-.086-.713-.086-1.312v-5.14h1.406v4.6c0 .735.029 1.23.086 1.485.089.37.276.662.563.875.286.208.64.313 1.062.313.422 0 .818-.107 1.188-.32.37-.22.63-.514.781-.883.156-.375.234-.917.234-1.625v-4.446h1.407V37.3h-1.258Zm3.469 0v-8.297h1.265v1.18c.61-.912 1.49-1.367 2.64-1.367.5 0 .96.09 1.376.273.422.177.737.412.945.703.209.292.354.638.438 1.04.052.26.078.715.078 1.367V37.3h-1.406v-5.047c0-.573-.055-1-.165-1.281a1.327 1.327 0 0 0-.585-.68 1.81 1.81 0 0 0-.977-.258c-.599 0-1.117.19-1.555.57-.432.38-.648 1.102-.648 2.165V37.3h-1.406Zm11.976-1.258.203 1.242c-.395.084-.75.125-1.062.125-.51 0-.906-.08-1.188-.242a1.36 1.36 0 0 1-.593-.633c-.115-.265-.172-.82-.172-1.664v-4.773h-1.032v-1.094h1.032v-2.055l1.398-.843v2.898h1.414v1.094h-1.414v4.852c0 .4.024.658.07.773a.615.615 0 0 0 .243.273c.114.068.276.102.484.102.156 0 .362-.018.617-.055Zm6.797.235c-.521.442-1.023.755-1.508.937a4.32 4.32 0 0 1-1.547.273c-.911 0-1.612-.22-2.101-.663-.49-.448-.735-1.019-.735-1.712 0-.406.092-.776.274-1.109.187-.338.43-.61.726-.812a3.47 3.47 0 0 1 1.016-.461c.276-.073.693-.143 1.25-.211 1.136-.136 1.971-.297 2.508-.485.005-.192.008-.315.008-.367 0-.573-.133-.976-.399-1.21-.36-.318-.893-.477-1.601-.477-.662 0-1.151.117-1.47.351-.312.23-.543.638-.694 1.227l-1.375-.188c.125-.588.33-1.062.617-1.422.286-.364.7-.643 1.242-.835.542-.198 1.17-.297 1.883-.297.708 0 1.284.083 1.726.25.443.166.769.377.977.633.208.25.354.567.437.953.047.24.071.671.071 1.296v1.876c0 1.307.028 2.135.086 2.484.062.344.182.674.359.992h-1.469a2.985 2.985 0 0 1-.281-1.023Zm-.117-3.141c-.511.208-1.276.385-2.297.531-.578.084-.987.177-1.227.282a1.214 1.214 0 0 0-.75 1.125c0 .375.141.687.422.937.287.25.703.375 1.25.375.542 0 1.024-.117 1.446-.352a2.21 2.21 0 0 0 .929-.976c.151-.318.227-.787.227-1.406v-.516Zm3.617-5.672v-1.617h1.406v1.617h-1.406Zm0 9.836v-8.297h1.406V37.3h-1.406Zm3.555 0v-8.297h1.265v1.18c.61-.912 1.49-1.367 2.641-1.367.5 0 .958.09 1.375.273.422.177.737.412.945.703.209.292.354.638.438 1.04.052.26.078.715.078 1.367V37.3h-1.406v-5.047c0-.573-.055-1-.164-1.281a1.331 1.331 0 0 0-.586-.68 1.812 1.812 0 0 0-.977-.258c-.599 0-1.117.19-1.555.57-.432.38-.648 1.102-.648 2.165V37.3H107.7ZM37 25l-3.75 5 2.85 3.8-1.6 1.2c-1.69-2.25-4.5-6-4.5-6l-6 8h22l-9-12Z" fill="#000"/><defs><filter id="beach__a" x="0" y=".3" width="144" height="68" filterUnits="userSpaceOnUse" color-interpolation-filters="sRGB"><feFlood flood-opacity="0" result="BackgroundImageFix"/><feColorMatrix in="SourceAlpha" values="0 0 0 0 0 0 0 0 0 0 0 0 0 0 0 0 0 0 127 0" result="hardAlpha"/><feOffset dy="3"/><feGaussianBlur stdDeviation="7.5"/><feColorMatrix values="0 0 0 0 0.117647 0 0 0 0 0.796078 0 0 0 0 0.882353 0 0 0 1 0"/><feBlend in2="BackgroundImageFix" result="effect1_dropShadow_808_12"/><feBlend in="SourceGraphic" in2="effect1_dropShadow_808_12" result="shape"/></filter></defs></svg>