<svg width="133" height="68" fill="none" xmlns="http://www.w3.org/2000/svg"><g filter="url(#Group 85__a)"><path opacity=".79" d="M107.774 12H25.005C19.479 12 15 15.12 15 18.967v24.066C15 46.881 19.48 50 25.005 50h82.769c5.526 0 10.005-3.12 10.005-6.967V18.967c0-3.848-4.479-6.967-10.005-6.967Z" fill="#fff"/></g><path d="M43.67 37V25.547h2.28l2.712 8.11c.25.755.432 1.32.546 1.695.13-.417.334-1.03.61-1.836l2.742-7.97h2.04V37h-1.462v-9.586L49.81 37h-1.367l-3.313-9.75V37h-1.46Zm12.671-4.148c0-1.537.427-2.675 1.282-3.414.713-.615 1.583-.922 2.609-.922 1.14 0 2.073.375 2.797 1.125.724.744 1.086 1.776 1.086 3.093 0 1.068-.162 1.91-.485 2.524a3.377 3.377 0 0 1-1.398 1.422 4.05 4.05 0 0 1-2 .508c-1.162 0-2.102-.373-2.82-1.118-.714-.745-1.07-1.817-1.07-3.218Zm1.446 0c0 1.062.231 1.859.695 2.39a2.233 2.233 0 0 0 1.75.79c.698 0 1.279-.266 1.742-.798.464-.53.695-1.34.695-2.43 0-1.025-.234-1.801-.703-2.327-.463-.532-1.041-.797-1.734-.797-.703 0-1.287.263-1.75.789-.464.526-.695 1.32-.695 2.383ZM71.208 37v-1.219c-.645.938-1.523 1.407-2.632 1.407a3.38 3.38 0 0 1-1.375-.282c-.422-.187-.737-.422-.946-.703a2.72 2.72 0 0 1-.43-1.047c-.057-.276-.085-.713-.085-1.312v-5.14h1.406v4.6c0 .735.029 1.23.086 1.485.088.37.276.661.562.875.287.208.641.313 1.063.313.422 0 .818-.107 1.187-.32.37-.22.63-.514.782-.884.156-.375.234-.916.234-1.625v-4.445h1.406V37h-1.258Zm3.47 0v-8.297h1.265v1.18c.61-.912 1.49-1.367 2.64-1.367.5 0 .959.09 1.375.273.422.177.737.412.946.703.208.292.354.638.437 1.04.052.26.078.715.078 1.366V37h-1.406v-5.047c0-.573-.055-1-.164-1.281a1.327 1.327 0 0 0-.586-.68 1.81 1.81 0 0 0-.976-.258c-.6 0-1.118.19-1.555.57-.432.38-.649 1.102-.649 2.165V37h-1.406Zm11.976-1.258.203 1.242c-.396.084-.75.125-1.063.125-.51 0-.906-.08-1.187-.242a1.36 1.36 0 0 1-.594-.633c-.115-.265-.172-.82-.172-1.664v-4.773H82.81v-1.094h1.031v-2.055l1.399-.843v2.898h1.414v1.094H85.24v4.851c0 .401.023.66.07.774a.615.615 0 0 0 .242.273c.115.068.276.102.485.102.156 0 .361-.018.617-.055Zm6.797.235c-.521.442-1.024.755-1.508.937-.48.182-.995.273-1.547.273-.912 0-1.612-.22-2.102-.664-.49-.448-.734-1.018-.734-1.71 0-.407.091-.777.273-1.11.188-.338.43-.61.727-.812.302-.203.64-.357 1.016-.461.276-.073.692-.144 1.25-.211 1.135-.136 1.971-.297 2.507-.485.006-.192.008-.315.008-.367 0-.573-.133-.976-.398-1.21-.36-.319-.893-.477-1.602-.477-.661 0-1.15.117-1.468.351-.313.23-.545.638-.696 1.227l-1.375-.188c.125-.588.33-1.062.617-1.422.287-.364.7-.643 1.243-.835.541-.198 1.169-.297 1.882-.297.709 0 1.284.083 1.727.25.443.166.768.377.977.632.208.25.354.568.437.954.047.24.07.671.07 1.296v1.875c0 1.308.029 2.136.086 2.485.063.344.183.674.36.992h-1.47a2.981 2.981 0 0 1-.28-1.023Zm-.118-3.141c-.51.208-1.276.385-2.296.531-.579.084-.987.177-1.227.281a1.214 1.214 0 0 0-.75 1.125c0 .375.14.688.422.938.286.25.703.375 1.25.375.541 0 1.023-.117 1.445-.352.422-.24.732-.565.93-.976.15-.318.226-.787.226-1.406v-.516Zm3.618-5.672v-1.617h1.406v1.617H96.95Zm0 9.836v-8.297h1.406V37H96.95Zm3.554 0v-8.297h1.266v1.18c.609-.912 1.49-1.367 2.641-1.367.5 0 .958.09 1.375.273.421.177.737.412.945.703.208.292.354.638.437 1.04.052.26.078.715.078 1.366V37h-1.406v-5.047c0-.573-.054-1-.164-1.281a1.326 1.326 0 0 0-.586-.68 1.807 1.807 0 0 0-.976-.258c-.599 0-1.118.19-1.555.57-.432.38-.648 1.102-.648 2.165V37h-1.407Z" fill="#000"/><g clip-path="url(#Group 85__b)"><path d="m29.622 25-3.38 5 2.569 3.8-1.443 1.2c-1.523-2.25-4.057-6-4.057-6l-5.41 8h19.835l-8.114-12Z" fill="#000"/></g><defs><clipPath id="Group 85__b"><path fill="#fff" transform="translate(17 19)" d="M0 0h21.638v24H0z"/></clipPath><filter id="Group 85__a" x="0" y="0" width="132.779" height="68" filterUnits="userSpaceOnUse" color-interpolation-filters="sRGB"><feFlood flood-opacity="0" result="BackgroundImageFix"/><feColorMatrix in="SourceAlpha" values="0 0 0 0 0 0 0 0 0 0 0 0 0 0 0 0 0 0 127 0" result="hardAlpha"/><feOffset dy="3"/><feGaussianBlur stdDeviation="7.5"/><feColorMatrix values="0 0 0 0 0.117647 0 0 0 0 0.796078 0 0 0 0 0.882353 0 0 0 1 0"/><feBlend in2="BackgroundImageFix" result="effect1_dropShadow_813_69"/><feBlend in="SourceGraphic" in2="effect1_dropShadow_813_69" result="shape"/></filter></defs></svg>